<?xml version="1.0" encoding="UTF-8"?>
<svg id="Layer_1" data-name="Layer 1" xmlns="http://www.w3.org/2000/svg" viewBox="0 0 539.27 521.53">
  <defs>
    <style>
      .cls-1 {
        fill: #133458;
      }
    </style>
  </defs>
  <path class="cls-1" d="M170.5,171.6c.02-30.41,18.36-56.42,46.25-65.25,19.9-6.3,37.45-1.42,52.72,12.46,7.95,7.23,14.18,15.82,19.69,24.97,2.05,3.41,2.24,3.4,4.29,.02,7.89-13.01,17.02-24.87,30.3-32.9,4.95-3,10.21-5.4,15.93-6.23,26.62-3.87,46.99,6.9,61.15,28.66,16.53,25.38,14.76,51.58-.16,77.27-10.13,17.46-23.99,31.86-38.53,45.59-20.69,19.53-41.6,38.83-62.46,58.18-5.27,4.89-11.47,4.91-16.71,.06-25.34-23.48-51.24-46.37-75.37-71.12-12.99-13.33-24.64-27.7-31.78-45.17-3.51-8.6-5.62-17.51-5.33-26.53Zm133.44,69.69c0-4.66,.18-9.33-.06-13.98-.16-3,.48-4.1,3.83-4.01,9.67,.27,19.36,.03,29.04,.13,3.1,.03,4.29-1.18,4.21-4.25-.14-5.37-.02-10.76-.04-16.13-.02-4.45-.39-4.81-5-4.82-9.56-.01-19.13-.11-28.68,.06-2.78,.05-3.38-.84-3.34-3.45,.15-9.56,.07-19.12,.05-28.68-.01-4.53-.49-5.02-4.83-5.03-5.26-.01-10.52,.15-15.77-.05-3.47-.13-4.64,1.25-4.6,4.62,.13,9.8-.03,19.6,.09,29.4,.03,2.49-.67,3.23-3.21,3.2-9.92-.15-19.84,0-29.76-.1-3.08-.03-4.3,1.16-4.21,4.25,.14,5.37,.03,10.76,.04,16.13,.01,4.29,.47,4.78,4.69,4.79,9.68,.02,19.36,.11,29.04-.06,2.67-.05,3.47,.63,3.43,3.35-.16,9.92-.01,19.84-.09,29.76-.02,2.87,1.08,4.16,4.01,4.12,5.62-.09,11.24-.08,16.85,0,2.98,.05,4.42-1.07,4.35-4.21-.12-5.02-.03-10.04-.03-15.06Z"/>
  <path class="cls-1" d="M270.16,417.89c-15.73,.06-28.55-4.93-41.45-9.79-16.82-6.34-33.71-12.5-50.66-18.48-4.94-1.74-9.9-.77-14.44,2.03-9.45,5.83-18.96,11.57-28.42,17.39-7.05,4.34-9.56,3.63-12.8-3.86-6.72-15.53-13.42-31.07-20.13-46.61-1.67-3.87-3.35-7.73-4.95-11.62-3.75-9.17-2.71-12.45,5.2-18.3,11.46-8.48,23.9-15.36,36.37-22.16,7.2-3.93,13.82-9,21.78-11.47,9.71-3.02,19.58-4.84,29.8-3.34,13.81,2.03,26.3,7.12,36.5,16.82,13.75,13.06,30.8,20.89,46.95,30.16,5.66,3.25,9.05,7.73,8.76,14.4-.34,7.65-5.92,14.02-14.24,12.73-10.03-1.55-20.13-2.6-30.2-3.89-4.35-.56-8.22-2.22-11.79-4.83-10.31-7.56-20.72-14.98-31.08-22.48-1.84-1.33-3.73-2.74-5.51-.22-1.76,2.5,.23,3.84,2.01,5.19,12.04,9.09,23.82,18.53,36.39,26.91,1.97,1.32,4.3,1.81,6.55,2.51,4.89,1.52,10.06,1.91,15,2.43,7.81,.82,15.58,2.47,23.48,2.37,6.01-.08,13.96-6.83,15.68-13.32,.68-2.56,1.58-3.55,3.91-1.56,.54,.46,1.34,.63,1.82,1.13,4.35,4.55,9.33,2.84,14.37,1.68,4.25-.98,8.72-1.35,12.87-2.36,4.4-1.07,8.88-2,13.29-3.05,9.7-2.29,19.48-4.26,29.28-6.09,4.47-.83,9.04-1.49,13.4-2.51,6.12-1.44,12.4-2.19,18.45-4.11,4.01-1.27,8.33-1.65,12.54-2.23,5.13-.71,9.92-2.92,15.17-3.13,6.9-.28,16,3.81,18.91,10.81,3.72,8.96-2.99,18.59-10.78,21.14-11.07,3.61-22.15,7.22-33.23,10.77-33.93,10.89-67.91,21.64-101.89,32.36-9.27,2.93-18.82,4.42-26.91,4.59Z"/>
  <path class="cls-1" d="M299.45,344.72c4.34-.87,8.91-1.53,13.33-2.72,4.7-1.27,9.51-2.03,14.26-2.91,7.1-1.31,14.3-2.45,21.31-3.98,10.51-2.29,21.23-3.65,31.58-6.66,5.94-1.73,12.12-.81,18.17-1.46,2.69-.29,5.42,1.34,7.34,3.59,2.2,2.59,1.66,4.19-1.67,4.85-11,2.2-22.01,4.35-33.01,6.54-20.95,4.17-41.9,8.3-62.83,12.57-2.67,.54-4.82,.29-7.01-1.36-2.58-1.93-5.37-3.57-8.03-5.4-.45-.31-.96-.9-.96-1.37,0-.64,.78-.84,1.36-.89,2.01-.18,3.92-1.15,6.17-.82Z"/>
</svg>