<?xml version="1.0" encoding="UTF-8"?>
<svg id="Layer_1" data-name="Layer 1" xmlns="http://www.w3.org/2000/svg" viewBox="0 0 539.27 521.53">
  <defs>
    <style>
      .cls-1 {
        fill: #133458;
      }
    </style>
  </defs>
  <path class="cls-1" d="M386.8,319.37c-13.5-.01-26.59,4.67-37.03,13.24l-22.38-22.32c24.53-28.45,24.53-70.57,0-99.01l18.98-18.98c6.62,5.17,14.52,8.45,22.85,9.49v12.95c-12.53,3.24-20.07,16.02-16.83,28.55,3.24,12.53,16.02,20.07,28.55,16.83,12.53-3.24,20.07-16.02,16.83-28.55-2.13-8.25-8.58-14.7-16.83-16.83v-12.95c25.69-3.21,43.91-26.63,40.7-52.32-3.21-25.69-26.63-43.91-52.32-40.7-21.28,2.66-38.04,19.42-40.7,40.7h-12.95c-3.24-12.53-16.02-20.07-28.55-16.83-12.53,3.24-20.07,16.02-16.83,28.55,3.24,12.53,16.02,20.07,28.55,16.83,8.25-2.13,14.7-8.58,16.83-16.83h12.95c1.04,8.33,4.32,16.23,9.49,22.85l-18.98,18.98c-28.45-24.53-70.57-24.53-99.01,0l-22.32-22.38c20.47-25.06,16.74-61.97-8.32-82.44-25.06-20.47-61.97-16.74-82.44,8.32-20.47,25.06-16.74,61.97,8.32,82.44,21.57,17.61,52.55,17.61,74.12,0l22.38,22.32c-24.53,28.45-24.53,70.57,0,99.01l-18.98,18.98c-6.62-5.17-14.52-8.45-22.85-9.49v-12.95c12.53-3.24,20.07-16.02,16.83-28.55-3.24-12.53-16.02-20.07-28.55-16.83-12.53,3.24-20.07,16.02-16.83,28.55,2.13,8.25,8.58,14.7,16.83,16.83v12.95c-25.69,3.21-43.91,26.63-40.7,52.32,3.21,25.69,26.63,43.91,52.32,40.7,21.28-2.66,38.04-19.42,40.7-40.7h12.95c3.24,12.53,16.02,20.07,28.55,16.83,12.53-3.24,20.07-16.02,16.83-28.55-3.24-12.53-16.02-20.07-28.55-16.83-8.25,2.13-14.7,8.58-16.83,16.83h-12.95c-1.04-8.33-4.32-16.23-9.49-22.85l18.98-18.98c28.45,24.53,70.57,24.53,99.01,0l22.32,22.38c-20.45,25.08-16.7,61.98,8.38,82.43,25.08,20.45,61.98,16.7,82.43-8.38,20.45-25.08,16.7-61.98-8.38-82.43-10.47-8.54-23.57-13.2-37.08-13.18ZM181.74,180.16v-7.26c0-7.78-3.1-15.25-8.61-20.74-1.32-1.32-2.77-2.5-4.34-3.52,9.27-9.03,9.47-23.86,.45-33.14-9.03-9.27-23.86-9.47-33.14-.45-9.27,9.03-9.47,23.86-.45,33.14,.15,.15,.3,.3,.45,.45-8.08,5.43-12.93,14.52-12.95,24.26v7.26c-20.21-16.18-23.47-45.68-7.29-65.88,16.18-20.21,45.68-23.47,65.88-7.29,20.21,16.18,23.47,45.68,7.29,65.88-2.16,2.69-4.6,5.14-7.29,7.29Zm128.89,130.3v-14.53c.13-10.83-4.09-21.26-11.72-28.94-2.93-3.01-6.34-5.52-10.08-7.44,12.36-10.44,13.93-28.92,3.49-41.28-10.44-12.36-28.92-13.93-41.28-3.49s-13.93,28.92-3.49,41.28c1.06,1.26,2.23,2.43,3.49,3.49-13.71,6.96-22.37,21.01-22.44,36.38v14.53c-27.46-22.65-31.35-63.27-8.7-90.73,22.65-27.46,63.27-31.35,90.73-8.7,27.46,22.65,31.35,63.27,8.7,90.73-2.62,3.17-5.53,6.09-8.7,8.7Zm105.46,104.05v-7.26c0-7.78-3.1-15.25-8.61-20.74-1.32-1.32-2.77-2.5-4.34-3.52,9.27-9.03,9.47-23.86,.45-33.14-9.03-9.27-23.86-9.47-33.14-.45-9.27,9.03-9.47,23.86-.45,33.14,.15,.15,.3,.3,.45,.45-8.08,5.43-12.93,14.52-12.95,24.26v7.26c-20.21-16.18-23.47-45.68-7.29-65.88,16.18-20.21,45.68-23.47,65.88-7.29,20.21,16.18,23.47,45.68,7.29,65.88-2.16,2.69-4.6,5.14-7.29,7.29Z"/>
</svg>