<?xml version="1.0" encoding="UTF-8"?>
<svg id="Layer_1" data-name="Layer 1" xmlns="http://www.w3.org/2000/svg" viewBox="0 0 539.27 521.53">
  <defs>
    <style>
      .cls-1 {
        fill: #133458;
      }
    </style>
  </defs>
  <path class="cls-1" d="M388.09,168.22c-31.89,14.47-63.5,27.45-93.75,43.09-17.13,8.83-31.03,8.67-48.12-.04-32.61-16.6-66.45-30.71-99.8-45.8-3.81-1.72-8.13-3.04-8.15-8.2-.04-5.33,4.51-6.37,8.32-7.91,39.03-15.74,78.1-31.43,117.08-47.31,4.69-1.91,8.77-1.86,13.42,.04,38.71,15.83,77.48,31.48,116.23,47.22,10.39,4.21,10.44,6.16,3.63,14.89-3.88,4.98-2.38,11.5-.65,17.35,.54,1.82,1.81,3.41,2.73,5.12,5.44,9.96,4.29,18.92-3.39,26.86-2.64,2.73-5.17,2.7-7.79,.03-7.46-7.63-8.65-16.65-3.47-26.18q4.61-8.45,3.71-19.16"/>
  <path class="cls-1" d="M173.13,216.99c0-5.84,.23-11.68-.06-17.51-.3-5.89,1.62-6.56,6.66-4.21,24.95,11.63,50.19,22.63,74.93,34.68,10.39,5.05,19.31,4.93,29.67-.12,23.74-11.59,48.04-22.01,71.99-33.19,5.33-2.49,7.2-2.09,7,4.35-.37,11.11-.31,22.24-.03,33.36,.13,5.51-2.13,8.6-6.93,10.94-27.23,13.26-54.4,26.64-81.46,40.25-5.37,2.7-9.82,1.86-14.8-.63-25.86-12.92-51.69-25.91-77.8-38.31-7.1-3.36-10.03-7.74-9.24-15.44,.47-4.67,.09-9.44,.09-14.16"/>
  <path class="cls-1" d="M331.43,313.15c29.91,9.09,47.03-7.86,63.28-26.36,3.15-3.58,3.54-8.63,3.6-13.44,.09-10.01,.19-20.02,.36-30.03,.27-15.51,9.28-27.86,23.58-32.88,3.12-1.09,3.97-.22,3.95,2.76-.09,24.47-.04,48.93-.3,73.4-.06,5.83-3.57,10.27-7.45,14.44-17.7,19.05-35.32,38.2-52.91,57.36-2,2.17-5.38,3.98-4.8,7.37,1.48,8.85-3.49,9.02-10.01,8.92-18.72-.29-37.44-.23-56.16-.03-4.9,.06-7.32-1.37-6.57-6.59,.13-.81,.01-1.67,.03-2.49,.56-41.82-4.62-28.16,23.06-59.14,7.74-8.67,15.65-17.18,23.64-25.63,5.3-5.6,12.58-6.24,16.82-1.81,3.88,4.06,3.35,11.36-1.64,16.46-5.78,5.88-11.91,11.43-18.47,17.67"/>
  <path class="cls-1" d="M207.11,312.71c-5.71-5.57-11.53-11.03-17.11-16.73-5.28-5.38-6.23-13.11-2.41-17.13,4.29-4.51,11.48-3.38,17.29,2.89,12.97,13.99,25.79,28.13,38.86,42.02,4.64,4.93,6.96,10.45,6.86,17.23-.14,9.17-.23,18.35,.04,27.5,.14,4.78-1.68,6.21-6.24,6.18-20.08-.18-40.16-.14-60.24-.04-3.66,.03-5.98-.85-5.33-5.07,.73-4.65-1.64-7.73-4.61-10.9-17.52-18.82-34.78-37.9-52.43-56.61-5.88-6.23-8.78-12.99-8.67-21.61,.26-21.39,.3-42.79-.04-64.18-.12-7.14,1.75-6.95,7.24-4.16,14.35,7.29,21.39,18.55,20.49,34.82-.12,1.94,0,3.89,.03,5.83,.63,37.09-2.57,28.75,24.19,53.81,6.47,6.06,13.76,8.82,22.44,8.58,6.21-.18,12.45-.04,18.67-.04,.33-.8,.66-1.59,.98-2.39"/>
  <path class="cls-1" d="M324.18,420.78c-12.94,0-25.88-.17-38.81,.08-5.64,.1-8.14-2.04-7.95-7.78,.19-6.11,.19-12.24,0-18.35-.19-5.78,2.4-7.82,7.99-7.79,26.15,.17,52.3,.15,78.46,.01,5.28-.03,7.68,2.14,7.58,7.36,0,.28,.01,.56,.01,.83-.37,31.22,3.89,24.98-24.15,25.61-7.7,.18-15.42,.03-23.12,.03"/>
  <path class="cls-1" d="M214.32,420.78c-12.38,0-24.75-.24-37.1,.1-6.55,.18-8.96-2.4-8.54-8.83,.35-5.25,.37-10.57-.01-15.82-.49-6.71,1.84-9.44,8.85-9.35,25.29,.31,50.58,.27,75.88,.01,6.52-.06,8.76,2.48,8.63,8.85-.64,30.27,4.12,24.41-23.78,25.01-7.97,.17-15.95,.03-23.92,.03"/>
</svg>