<?xml version="1.0" encoding="UTF-8"?>
<svg id="Layer_1" data-name="Layer 1" xmlns="http://www.w3.org/2000/svg" viewBox="0 0 539.27 521.53">
  <defs>
    <style>
      .cls-1 {
        fill: #133458;
      }
    </style>
  </defs>
  <path class="cls-1" d="M275.14,321.36c-2.77-7.16-4.78-14.4-5.08-21.48-.31-6.85,1-13.94,4.77-21.33h-.08c1.62-3.16,.69-7.16-2.39-9.16l-134.38-90.02c-.39-.23-.85-.54-1.23-.69-3.62-1.69-7.93-.15-9.55,3.39-4.62,9.63-6.32,18.71-5.93,27.49,.38,8.55,2.69,16.63,6.31,24.41,.54,1.23,1.39,2.31,2.54,3.16l133.76,92.41c1.93,1.54,4.62,2.08,7.01,1.08,3.77-1.39,5.62-5.54,4.24-9.24Zm139.07-36.73c-1.77-3.54-6.08-4.93-9.63-3.16l-120.13,60.68c-3.62,1.77-5.01,6.08-3.23,9.63,1.77,3.54,6.08,4.93,9.63,3.16l120.21-60.6c3.54-1.85,4.93-6.16,3.16-9.7Zm-5.7,30.11c-.54-1.16-2-1.62-3.16-1l-120.21,60.6c-1.16,.62-1.62,2.08-1.08,3.23,.62,1.16,2.08,1.62,3.23,1.08l120.21-60.68c1.16-.62,1.62-2,1-3.23Zm8.78,23.95c-1.77-3.54-6.16-4.93-9.7-3.16l-120.13,60.61c-3.54,1.85-4.93,6.16-3.16,9.7,1.77,3.54,6.08,4.93,9.63,3.16l120.13-60.68c3.54-1.77,5-6.08,3.23-9.63Zm-136.23,68.61c-2.77-7.16-4.78-14.4-5.08-21.48-.31-6.85,1-13.94,4.78-21.33h-.08c1.62-3.16,.69-7.16-2.39-9.16l-134.45-90.02c-.31-.23-.77-.54-1.16-.69-3.62-1.69-7.93-.15-9.63,3.39-4.54,9.63-6.24,18.71-5.85,27.49,.31,8.55,2.69,16.63,6.31,24.41,.46,1.23,1.39,2.31,2.54,3.16l133.76,92.41c1.93,1.54,4.54,2.08,7.01,1.08,3.77-1.39,5.62-5.54,4.24-9.24Zm123.37-210.77c-.69-1.31-1.69-2.39-2.93-3.08l-131.53-87.79c-2.23-1.46-5.01-1.54-7.24-.38l-119.59,56.06c-3.62,1.69-5.16,5.93-3.46,9.55,.54,1.23,1.39,2.23,2.46,2.93l134.69,90.18c2.23,1.46,5,1.54,7.24,.46l117.13-58.29c3.54-1.77,5.01-6.08,3.24-9.63Zm-194.67-9.24l-17.02-11.01,86.79-41.74,16.48,11.01-86.25,41.74Zm193.29,41.2c-.61-1.16-2.08-1.62-3.23-1l-120.21,60.6c-1.16,.62-1.62,2.08-1,3.23,.54,1.16,2,1.69,3.16,1.08l120.21-60.68c1.15-.54,1.62-2,1.08-3.23Zm8.32,26.18c-1.77-3.54-6.16-5.01-9.7-3.16l-120.13,60.6c-3.54,1.77-4.93,6.16-3.16,9.7s6.08,4.93,9.63,3.16l120.13-60.68c3.54-1.77,5-6.08,3.23-9.63Z"/>
</svg>