<?xml version="1.0" encoding="UTF-8"?>
<svg id="Layer_1" data-name="Layer 1" xmlns="http://www.w3.org/2000/svg" viewBox="0 0 539.27 521.53">
  <defs>
    <style>
      .cls-1 {
        fill: #133458;
      }
    </style>
  </defs>
  <path class="cls-1" d="M365.56,142.18H174.24l-50.07,62.18,145.48,174.99,145.45-174.96-49.54-62.21Zm24.31,54.61h-55.69l29.05-33.45,26.64,33.45Zm-41.16-39.61l-23.92,27.53-33.93-27.53h57.85Zm-32.84,39.61h-91.88l48.32-35.34,43.56,35.34Zm-63.14-39.61l-37.72,27.6-21.72-27.6h59.44Zm-74.96,4.54l27.61,35.07h-55.86l28.25-35.07Zm-27.92,50.07h55.66l46.42,122.78-102.08-122.78Zm71.7,0h92.74l-43.73,129.65-49.01-129.65Zm68.07,120.07l40.5-120.07h59.32l-99.82,120.07Z"/>
</svg>