<?xml version="1.0" encoding="UTF-8"?>
<svg id="Layer_1" data-name="Layer 1" xmlns="http://www.w3.org/2000/svg" viewBox="0 0 539.27 521.53">
  <defs>
    <style>
      .cls-1 {
        fill: #fff;
      }
    </style>
  </defs>
  <path class="cls-1" d="M266.94,349.98c-37.36-1.13-77.17-16.92-115.12-45.66-28.43-21.53-45.71-42.49-46.44-43.38l-4.33-5.29,4.64-5.02c.77-.84,19.3-20.72,48.97-40.49,39.62-26.39,80.31-39.75,117.67-38.62,37.36,1.13,77.17,16.92,115.12,45.66,28.43,21.53,45.71,42.49,46.44,43.38l4.33,5.29-4.64,5.02c-.77,.84-19.3,20.72-48.97,40.49-39.62,26.39-80.31,39.75-117.67,38.62Zm-144.73-93.69c6.79,7.42,20.65,21.58,39.4,35.73,24.58,18.56,62.88,40.95,105.81,42.25,42.93,1.3,82.52-18.74,108.17-35.78,19.57-13,34.26-26.29,41.49-33.29-6.79-7.42-20.65-21.58-39.4-35.73-24.58-18.56-62.88-40.95-105.81-42.25-42.93-1.3-82.52,18.74-108.17,35.78-19.57,13-34.26,26.29-41.49,33.29Z"/>
  <path class="cls-1" d="M267.05,346.18c-47.11-1.42-84.28-40.91-82.85-88.02,1.42-47.11,40.91-84.28,88.02-82.85,47.11,1.42,84.28,40.91,82.85,88.02-1.42,47.11-40.91,84.28-88.02,82.85Zm4.69-155.17c-38.45-1.16-70.68,29.17-71.84,67.62s29.17,70.68,67.62,71.84c38.45,1.16,70.68-29.17,71.84-67.62,1.16-38.45-29.17-70.68-67.62-71.84Z"/>
  <path class="cls-1" d="M270.54,319.08l-.23-15.71c3.84-.06,7.64-.63,11.31-1.7l4.41,15.08c-5.02,1.47-10.23,2.25-15.49,2.33Zm-20.54-3.38c-4.93-1.76-9.61-4.19-13.91-7.21l9.04-12.85c3.14,2.21,6.55,3.98,10.15,5.26l-5.29,14.79Zm54.65-8.28l-9.43-12.56c3.07-2.3,5.81-5.01,8.16-8.04l12.42,9.62c-3.21,4.14-6.96,7.84-11.15,10.98Zm-83.18-13.75c-2.97-4.33-5.33-9.04-7.03-13.99l14.86-5.1c1.24,3.61,2.97,7.05,5.13,10.21l-12.96,8.88Zm103.93-15.72l-15.01-4.62c1.12-3.64,1.75-7.44,1.87-11.29v-.19s15.71,.47,15.71,.47v.19c-.16,5.26-1.02,10.45-2.56,15.44Zm-98.38-18.4l-15.7-.47v-.1c.16-5.22,1.01-10.38,2.52-15.33l15.02,4.6c-1.11,3.62-1.73,7.39-1.84,11.21v.1Zm82.93-12.72c-1.25-3.61-2.98-7.04-5.15-10.2l12.95-8.9c2.97,4.33,5.35,9.03,7.06,13.98l-14.85,5.13Zm-74.1-12.09l-12.44-9.6c3.2-4.15,6.94-7.85,11.12-11l9.46,12.54c-3.06,2.31-5.8,5.02-8.14,8.05Zm58.22-8.93c-3.14-2.2-6.56-3.97-10.16-5.24l5.26-14.8c4.94,1.75,9.62,4.17,13.92,7.18l-9.02,12.86Zm-36.49-5.97l-4.44-15.07c5.02-1.48,10.22-2.27,15.48-2.36l.26,15.71c-3.84,.06-7.64,.64-11.3,1.72Z"/>
  <circle class="cls-1" cx="269.64" cy="260.75" r="26.72"/>
  <path class="cls-1" d="M273.32,386.94l-.07-15.71c4.18-.02,8.45-.17,12.68-.46l1.05,15.68c-4.55,.3-9.15,.47-13.65,.49Zm-18.22-.69c-4.48-.36-9.04-.87-13.55-1.51l2.22-15.55c4.2,.6,8.44,1.07,12.6,1.41l-1.26,15.66Zm49.94-1.74l-2.28-15.54c4.15-.61,8.37-1.35,12.55-2.2l3.14,15.39c-4.46,.91-8.97,1.7-13.4,2.35Zm-81.36-3.04c-4.36-.97-8.79-2.09-13.18-3.32l4.25-15.12c4.11,1.15,8.26,2.2,12.35,3.11l-3.42,15.33Zm112.36-3.54l-4.19-15.14c4.04-1.12,8.16-2.37,12.25-3.71l4.91,14.92c-4.32,1.42-8.69,2.74-12.97,3.93Zm-142.77-5.27c-4.18-1.49-8.44-3.12-12.64-4.84l5.96-14.53c3.97,1.63,7.99,3.17,11.94,4.58l-5.27,14.8Zm172.69-4.82l-5.8-14.6c3.92-1.56,7.9-3.23,11.84-4.99l6.39,14.35c-4.13,1.84-8.32,3.6-12.44,5.24Zm-201.79-7.36c-3.99-1.92-8.03-3.97-12.03-6.09l7.38-13.87c3.8,2.02,7.66,3.97,11.45,5.8l-6.81,14.16Zm230.44-5.62l-7.12-14c3.77-1.92,7.6-3.96,11.38-6.05l7.62,13.74c-3.94,2.19-7.94,4.31-11.88,6.32Zm-258.09-9.31c-3.79-2.27-7.63-4.66-11.41-7.12l8.55-13.18c3.63,2.35,7.31,4.65,10.94,6.82l-8.07,13.48Z"/>
  <path class="cls-1" d="M137.82,188.13l-7.73-13.67c3.93-2.22,7.9-4.38,11.82-6.41l7.24,13.94c-3.75,1.95-7.57,4.02-11.33,6.15Zm265.3,6.51c-3.63-2.32-7.33-4.58-10.99-6.73l7.96-13.54c3.82,2.25,7.68,4.61,11.47,7.02l-8.44,13.25Zm-238.55-20.18l-6.53-14.29c4.11-1.88,8.27-3.68,12.38-5.35l5.94,14.54c-3.91,1.6-7.88,3.31-11.79,5.1Zm212.55,5.14c-3.82-1.99-7.69-3.9-11.5-5.69l6.67-14.22c4.01,1.88,8.08,3.89,12.09,5.98l-7.25,13.94Zm-184.74-16.24l-5.07-14.87c4.29-1.47,8.64-2.84,12.92-4.07l4.36,15.09c-4.04,1.17-8.15,2.46-12.21,3.85Zm157.56,3.76c-3.99-1.59-8.03-3.08-11.99-4.44l5.1-14.86c4.2,1.44,8.47,3.02,12.69,4.7l-5.81,14.6Zm-128.85-11.78l-3.32-15.36c4.46-.96,8.96-1.81,13.37-2.52l2.48,15.51c-4.13,.66-8.35,1.45-12.53,2.36Zm100.59,2.37c-4.11-1.1-8.28-2.09-12.38-2.95l3.22-15.38c4.39,.92,8.83,1.98,13.22,3.15l-4.06,15.18Zm-71.24-6.75l-1.27-15.66c4.55-.37,9.14-.6,13.64-.68l.3,15.71c-4.18,.08-8.44,.29-12.67,.64Zm42.16,.98c-4.2-.54-8.45-.95-12.61-1.23l1.03-15.68c4.48,.29,9.05,.74,13.58,1.32l-2,15.58Z"/>
</svg>