<?xml version="1.0" encoding="UTF-8"?>
<svg id="Layer_1" data-name="Layer 1" xmlns="http://www.w3.org/2000/svg" viewBox="0 0 258.38 118.72">
  <defs>
    <style>
      .cls-1 {
        fill: #15548c;
      }
    </style>
  </defs>
  <g>
    <g>
      <path class="cls-1" d="M121.72,41.85l2.41-17.51h5.86l2.42,17.51h-3.69l-1.52-14.81h-.3l-1.5,14.81h-3.69Zm2.89-4.12v-2.92h4.88v2.92h-4.88Z"/>
      <path class="cls-1" d="M132.76,31.37v-2.99l2.91,.03,1.38-.03h2.96l-.23,2.99h-7.02Zm4.38-8.07c.56,0,1.06,.05,1.5,.15s.81,.21,1.1,.34l.26,2.71c-.19-.06-.39-.1-.61-.15s-.47-.07-.74-.07c-.32,0-.59,.05-.8,.14s-.37,.23-.48,.41c-.1,.19-.16,.41-.16,.69v.04c0,.23,.03,.43,.08,.59s.13,.34,.22,.51h-2.37v-.4c-.42-.18-.77-.45-1.06-.83-.29-.38-.43-.84-.43-1.37v-.06c0-.85,.3-1.52,.89-2s1.47-.72,2.62-.72h-.02Zm-3.14,18.56v-12.45h3.63v12.45h-3.63Z"/>
      <path class="cls-1" d="M141.15,41.85v-13.75h3.32l-.17,3.95,.52,.14v9.68h-3.68Zm3.66-8.08l-1.29-2.68h1c.11-.96,.39-1.72,.84-2.27s1.11-.83,2.02-.83h.11s.08,0,.15,0l.09,4.22c-.07,0-.15-.02-.25-.02h-.33c-.59,0-1.08,.13-1.48,.4-.4,.27-.69,.66-.86,1.18h0Z"/>
      <path class="cls-1" d="M150.7,27.07c-.66,0-1.14-.17-1.45-.51-.31-.33-.46-.8-.46-1.37v-.15c0-.58,.16-1.03,.46-1.37s.8-.5,1.45-.5,1.14,.17,1.45,.5,.46,.79,.46,1.37v.15c0,.58-.16,1.03-.46,1.37-.31,.33-.8,.51-1.45,.51Zm-1.84,14.78v-13.75h3.67v13.75h-3.67Z"/>
      <path class="cls-1" d="M158.68,42.06c-1.51,0-2.63-.46-3.33-1.38-.71-.92-1.06-2.22-1.06-3.9v-3.58c0-1.68,.36-2.98,1.08-3.9s1.82-1.38,3.32-1.38c.36,0,.7,.03,1,.08s.59,.14,.85,.24c.25,.1,.48,.22,.69,.35l.23,3.06c-.25-.16-.5-.28-.77-.38s-.59-.15-.94-.15c-.64,0-1.1,.2-1.37,.58-.27,.38-.41,.93-.41,1.64v3.26c0,.71,.15,1.24,.46,1.63s.78,.58,1.44,.58c.34,0,.67-.05,.96-.15,.29-.1,.54-.23,.76-.38l-.23,3.12c-.3,.2-.68,.36-1.13,.49s-.96,.2-1.5,.2l-.03-.03Z"/>
      <path class="cls-1" d="M165.4,42.06c-.96,0-1.67-.33-2.15-.99-.47-.66-.71-1.62-.71-2.86v-.66c0-1.29,.3-2.22,.89-2.8s1.51-1.03,2.77-1.33l2.16-.54,.4,2.49-1.63,.43c-.39,.11-.68,.27-.86,.48-.19,.21-.27,.53-.27,.94v.41c0,.46,.07,.83,.22,1.08s.4,.38,.77,.38c.21,0,.39-.05,.53-.15,.14-.09,.26-.22,.35-.39s.16-.35,.2-.57l.43,1.52h-.48c-.08,.48-.21,.92-.41,1.3s-.46,.69-.81,.91c-.35,.22-.82,.33-1.39,.33v.02Zm2.64-.2l.12-2.77h-.14v-5.53l-.06-.56c0-.72-.13-1.23-.38-1.54-.25-.32-.72-.47-1.39-.47-.57,0-1.12,.09-1.68,.28-.56,.19-1.05,.4-1.5,.62l.23-3.06c.29-.18,.62-.33,1-.47,.37-.14,.79-.26,1.25-.35s.96-.15,1.48-.15c.8,0,1.49,.1,2.06,.32,.58,.21,1.06,.52,1.43,.94,.37,.42,.65,.94,.83,1.58,.18,.63,.27,1.37,.27,2.21v8.94h-3.52Z"/>
    </g>
    <g>
      <path class="cls-1" d="M126.86,66.88c-1.73,0-3.02-.48-3.86-1.46s-1.27-2.42-1.27-4.35v-6.45c0-1.93,.43-3.38,1.27-4.36s2.14-1.47,3.86-1.47,3.02,.49,3.87,1.47,1.28,2.43,1.28,4.36v6.45c0,1.93-.43,3.38-1.28,4.35-.85,.98-2.15,1.46-3.87,1.46Zm0-3.18c.5,0,.85-.19,1.03-.56s.28-.94,.28-1.71v-7.21c0-.78-.09-1.35-.28-1.71-.19-.36-.53-.55-1.03-.55s-.84,.19-1.03,.55-.29,.94-.29,1.71v7.21c0,.77,.09,1.34,.29,1.71s.54,.56,1.03,.56Z"/>
      <path class="cls-1" d="M136.25,66.81c-.96,0-1.67-.33-2.15-.99-.47-.66-.71-1.62-.71-2.86v-.66c0-1.29,.3-2.22,.89-2.8s1.51-1.03,2.77-1.33l2.16-.54,.4,2.49-1.63,.43c-.39,.11-.68,.27-.86,.48-.19,.21-.27,.53-.27,.94v.41c0,.46,.07,.83,.22,1.08,.15,.25,.4,.38,.77,.38,.21,0,.39-.05,.53-.15,.14-.09,.26-.22,.35-.39s.16-.35,.2-.57l.43,1.52h-.48c-.08,.48-.21,.92-.41,1.3s-.46,.69-.81,.91c-.35,.22-.82,.33-1.39,.33v.02Zm2.64-.2l.12-2.77h-.14v-5.53l-.06-.56c0-.72-.13-1.23-.38-1.54-.25-.32-.72-.47-1.39-.47-.57,0-1.12,.09-1.68,.28-.56,.19-1.05,.4-1.5,.62l.23-3.06c.29-.18,.62-.33,1-.47,.37-.14,.79-.26,1.25-.35s.96-.15,1.48-.15c.8,0,1.49,.1,2.06,.32,.58,.21,1.06,.52,1.43,.94,.37,.42,.65,.94,.83,1.58,.18,.63,.27,1.37,.27,2.21v8.94h-3.52Z"/>
      <path class="cls-1" d="M147.3,66.81c-.71,0-1.33-.08-1.89-.25-.55-.17-1.01-.34-1.39-.55l-.23-3.29c.45,.24,.9,.45,1.37,.62,.46,.18,.98,.27,1.56,.27,.46,0,.79-.09,.98-.27,.19-.19,.27-.43,.27-.74v-.15c0-.23-.06-.43-.16-.6-.1-.18-.3-.36-.58-.56-.28-.2-.68-.46-1.2-.78-.54-.33-.98-.7-1.32-1.06-.34-.37-.59-.78-.76-1.24s-.25-.97-.25-1.55v-.2c0-1.24,.36-2.17,1.09-2.83,.72-.65,1.77-.98,3.15-.98,.65,0,1.24,.08,1.76,.25s.94,.37,1.26,.59l.22,3.04c-.35-.2-.75-.38-1.18-.55s-.9-.25-1.42-.25c-.31,0-.56,.04-.74,.11-.19,.07-.32,.18-.41,.32-.08,.14-.13,.31-.13,.5v.11c0,.24,.07,.45,.21,.64,.14,.19,.34,.37,.61,.55s.59,.38,.98,.61c.58,.33,1.05,.67,1.41,1,.36,.34,.63,.74,.81,1.2,.18,.46,.26,1.03,.26,1.71v.25c0,1.29-.35,2.28-1.05,2.99s-1.78,1.06-3.24,1.06h0Z"/>
      <path class="cls-1" d="M154.81,51.82c-.66,0-1.14-.17-1.45-.51-.31-.33-.46-.8-.46-1.37v-.15c0-.58,.16-1.03,.46-1.37s.8-.5,1.45-.5,1.14,.17,1.45,.5c.31,.33,.46,.79,.46,1.37v.15c0,.58-.16,1.03-.46,1.37-.31,.33-.8,.51-1.45,.51Zm-1.84,14.78v-13.75h3.67v13.75h-3.67Z"/>
      <path class="cls-1" d="M161.63,66.81c-.71,0-1.33-.08-1.89-.25-.55-.17-1.01-.34-1.39-.55l-.23-3.29c.45,.24,.9,.45,1.37,.62,.46,.18,.98,.27,1.56,.27,.46,0,.79-.09,.98-.27,.19-.19,.27-.43,.27-.74v-.15c0-.23-.06-.43-.16-.6-.1-.18-.3-.36-.58-.56-.28-.2-.68-.46-1.2-.78-.54-.33-.98-.7-1.32-1.06-.34-.37-.59-.78-.76-1.24s-.25-.97-.25-1.55v-.2c0-1.24,.36-2.17,1.09-2.83,.72-.65,1.77-.98,3.15-.98,.65,0,1.24,.08,1.76,.25s.94,.37,1.26,.59l.22,3.04c-.35-.2-.75-.38-1.18-.55s-.9-.25-1.42-.25c-.31,0-.56,.04-.74,.11-.19,.07-.32,.18-.41,.32-.08,.14-.13,.31-.13,.5v.11c0,.24,.07,.45,.21,.64,.14,.19,.34,.37,.61,.55s.59,.38,.98,.61c.58,.33,1.05,.67,1.41,1,.36,.34,.63,.74,.81,1.2,.18,.46,.26,1.03,.26,1.71v.25c0,1.29-.35,2.28-1.05,2.99s-1.78,1.06-3.24,1.06h0Z"/>
    </g>
    <g>
      <path class="cls-1" d="M121.72,91.37v-17.51h3.77v17.51h-3.77Zm2.44-14.11v-3.4h4.98v3.4h-4.98Zm.04,7.7v-3.41h4.78v3.41h-4.78Z"/>
      <path class="cls-1" d="M135.23,91.64c-1.59,0-2.79-.46-3.59-1.37-.81-.92-1.21-2.26-1.21-4.02v-3.48c0-1.78,.4-3.13,1.21-4.03s2-1.37,3.59-1.37,2.79,.46,3.58,1.37,1.2,2.26,1.2,4.03v3.48c0,1.76-.4,3.1-1.2,4.02s-2,1.37-3.58,1.37Zm0-3c.42,0,.72-.16,.87-.48,.17-.33,.25-.83,.25-1.51v-4.29c0-.68-.08-1.17-.25-1.5-.17-.32-.46-.48-.87-.48s-.72,.16-.88,.48c-.17,.32-.25,.82-.25,1.5v4.29c0,.69,.08,1.19,.25,1.51,.17,.33,.46,.48,.88,.48Z"/>
      <path class="cls-1" d="M145.39,77.62v9.28c0,.35,.03,.65,.09,.88,.06,.23,.16,.41,.31,.54s.34,.19,.6,.19c.22,0,.41-.05,.57-.15s.28-.23,.38-.41c.1-.17,.17-.36,.2-.59l.75,1.64h-.77c-.1,.47-.25,.91-.46,1.29-.2,.39-.5,.7-.88,.93s-.89,.35-1.53,.35c-.71,0-1.27-.15-1.71-.46-.44-.3-.75-.75-.95-1.36-.2-.6-.31-1.35-.31-2.24v-9.92h3.7Zm5.8,0v13.75h-3.64l.14-2.82-.18-.03v-10.9h3.68Z"/>
      <path class="cls-1" d="M153.2,91.37v-13.75h3.64l-.14,2.83,.18,.03v10.89h-3.68Zm5.82,0v-9.26c0-.35-.04-.65-.09-.89-.07-.24-.17-.42-.32-.54s-.34-.19-.6-.19c-.21,0-.4,.05-.56,.15-.16,.1-.29,.23-.38,.41s-.17,.37-.21,.59l-.75-1.66h.77c.1-.47,.25-.91,.46-1.29s.5-.7,.9-.93,.9-.34,1.52-.34c.71,0,1.27,.15,1.71,.46,.44,.3,.75,.75,.96,1.35s.3,1.34,.3,2.23v9.92h-3.7Z"/>
      <path class="cls-1" d="M167.5,91.58c-1.11,0-1.9-.45-2.38-1.33s-.71-2.16-.71-3.84v-3.61c0-1.77,.23-3.11,.7-4.01s1.27-1.35,2.42-1.35c.58,0,1.04,.11,1.39,.33s.63,.52,.83,.91c.2,.39,.34,.83,.45,1.32h.85l-.7,2.23c0-.38-.04-.71-.12-.98s-.2-.47-.38-.61c-.17-.15-.4-.22-.68-.22-.4,0-.69,.16-.85,.48s-.24,.82-.24,1.49v4.14c0,.66,.08,1.15,.24,1.47,.16,.33,.45,.48,.85,.48,.22,0,.41-.05,.57-.14,.16-.09,.29-.22,.4-.4,.1-.18,.18-.37,.22-.59l.54,1.61h-.61c-.09,.47-.24,.91-.44,1.31-.2,.4-.49,.72-.87,.96s-.88,.35-1.5,.35h.02Zm2.82-.2l.14-2.88-.09-.34v-7.79l-.04-3.97v-3.18h3.66v18.17h-3.67Z"/>
      <path class="cls-1" d="M178.35,91.58c-.96,0-1.67-.33-2.15-.99s-.71-1.62-.71-2.86v-.66c0-1.29,.3-2.22,.89-2.8s1.51-1.03,2.77-1.33l2.16-.54,.4,2.49-1.63,.43c-.39,.11-.68,.27-.86,.48-.19,.21-.27,.53-.27,.94v.41c0,.46,.07,.83,.22,1.08s.4,.38,.77,.38c.21,0,.39-.05,.53-.15s.26-.22,.35-.39,.16-.35,.2-.57l.43,1.52h-.48c-.08,.48-.21,.92-.4,1.3-.19,.38-.46,.69-.81,.91-.35,.22-.82,.33-1.39,.33l-.03,.02Zm2.65-.2l.12-2.77h-.14v-5.53l-.06-.56c0-.72-.13-1.23-.38-1.54-.25-.32-.72-.47-1.39-.47-.57,0-1.12,.09-1.68,.28-.56,.19-1.05,.4-1.5,.62l.23-3.06c.29-.18,.62-.33,1-.47,.37-.14,.79-.26,1.25-.35s.95-.15,1.47-.15c.8,0,1.49,.1,2.06,.32,.58,.21,1.06,.52,1.43,.94,.37,.42,.65,.94,.83,1.58,.18,.63,.27,1.37,.27,2.21v8.94h-3.51Z"/>
      <path class="cls-1" d="M185.38,80.63v-2.97h7.21l-.23,2.97h-6.97Zm4.73,10.93c-.81,0-1.47-.14-1.98-.42s-.9-.7-1.14-1.24c-.25-.55-.37-1.24-.37-2.05v-9.71h3.63v8.83c0,.45,.09,.77,.28,.96,.19,.2,.5,.29,.94,.29,.24,0,.46-.03,.66-.07s.39-.11,.58-.19l-.23,3.08c-.29,.16-.63,.28-1.03,.38s-.84,.14-1.33,.14h0Zm-3.43-13.66v-3.19l3.59-.46-.12,3.64h-3.47Z"/>
      <path class="cls-1" d="M195.76,76.59c-.66,0-1.14-.17-1.45-.51-.31-.33-.46-.8-.46-1.37v-.15c0-.58,.16-1.03,.46-1.37s.8-.5,1.45-.5,1.14,.17,1.45,.5,.46,.79,.46,1.37v.15c0,.58-.16,1.03-.46,1.37-.31,.33-.8,.51-1.45,.51Zm-1.84,14.78v-13.75h3.67v13.75h-3.67Z"/>
      <path class="cls-1" d="M204.13,91.64c-1.59,0-2.79-.46-3.59-1.37s-1.21-2.26-1.21-4.02v-3.48c0-1.78,.4-3.13,1.21-4.03s2-1.37,3.59-1.37,2.79,.46,3.58,1.37,1.2,2.26,1.2,4.03v3.48c0,1.76-.4,3.1-1.2,4.02s-2,1.37-3.58,1.37Zm0-3c.42,0,.72-.16,.87-.48,.17-.33,.25-.83,.25-1.51v-4.29c0-.68-.08-1.17-.25-1.5-.17-.32-.46-.48-.87-.48s-.72,.16-.88,.48c-.17,.32-.25,.82-.25,1.5v4.29c0,.69,.08,1.19,.25,1.51,.17,.33,.46,.48,.88,.48Z"/>
      <path class="cls-1" d="M210.66,91.37v-13.75h3.64l-.14,2.83,.18,.03v10.89h-3.68Zm5.82,0v-9.26c0-.35-.04-.65-.09-.89-.07-.24-.17-.42-.32-.54s-.34-.19-.6-.19c-.21,0-.4,.05-.56,.15-.16,.1-.29,.23-.38,.41s-.17,.37-.21,.59l-.75-1.66h.77c.1-.47,.25-.91,.46-1.29s.5-.7,.9-.93,.9-.34,1.52-.34c.71,0,1.27,.15,1.71,.46,.44,.3,.75,.75,.96,1.35s.3,1.34,.3,2.23v9.92h-3.7Z"/>
    </g>
  </g>
  <g>
    <path class="cls-1" d="M89.4,81.7c0,.6,.18,1.62,.06,2.26-.83,2.87-2.59,5.41-4.49,7.67-.8,1-1.89,2.53-2.8,3.45-1.09,1.15-2.54,1.76-3.91,2.5-.58,.36-1.63,.58-2.33,.71-1.03,.19-2.76,.58-3.81,.63-.72,0-1.14-.61-1.51-1.1-4.69-6.24-9.14-12.53-13.05-19.27-.29-.52-.61-1.12-.68-1.71-.07-2.47,.98-4.44,1.69-6.65,0-.03,.02-.06,.03-.07-.11,.24-.11,.92,0,1.11-1.39-3.24-3.45-6.41-4.63-9.81-.34-1.24,.02-2.4,.29-3.52,0-.03,0-.02,0-.02,0,.1-.04,.28,0,.4l1.41,1.71c-1.46-.51-2.16-1.23-3.17-2.1,.49,.39,1.3,.43,1.82,.12-.33,.16-.74,.31-1.06,.39-2.41,.56-5.12,1.24-7.5,.2l.85,.03c-3.27,1.01-7.43,1.05-9.92-1.74-.82-.75-1.29-1.99-1.86-2.89-1.56-2.66-3.15-5.64-4.66-8.34-.2-.45-.7-1.16-.77-1.67,0-1.53,.64-3.04,1.55-4.24,.07-.11,.1-.22,.13-.38,.07-.8-.31-2.13-.21-3.06-.07-2.36,1.37-4.7,3.01-6.25,2.28-2.37,4.88-3.66,6.19-6.5,.23-.56,.3-.87,.85-1.49,.7-.62,1.57-.98,2.28-1.28,6.83-2.5,13.48-3.97,20.61-4.85,1.08-.08,2.29-.17,3.24,.48,1.1,.73,1.77,1.89,2.44,2.93,0,0,.03,.05,0-.02-.14-.24-.34-.46-.58-.63-.46-.29-.3-.18-.33-.2,0,0-.07-.03,0,0l.12,.04c3.86,1,7.97,1.81,11.83,2.82,3.02,.85,6.27,1.43,9.1,3.13,.5,.35,.99,.8,1.29,1.35,.85,1.81,.46,4.04-.59,6.04l.26-2.24c-.02-.25-.23-.56-.33-.72l.04,.05,.15,.2c.19,.23,.71,.94,.9,1.18,2.69,3.53,5.63,7.42,8.13,11.1l.11,.19,.22,.38-2.98-1.37c2.71-.46,4.86-.65,7.68-.21,.68,.15,1.32,.3,1.98,.68,3.01,1.76,2.54,5.83,1.21,8.03-1.29,2.48-2.42,5.47-4.14,7.7-2.53,3.15-6.23,4.82-8.53,8.16l-.25,.33-.03,.04-.02,.02h0s-.05,.08,.03-.05c.09-.18,.13-.4,.09-.59v0l.04,.18c.57,1.73,.6,3.62,.91,5.37,.33,1.38,.02,2.77-.21,4.03-.43,1.62-.73,3.62-2.19,4.67-1.22,.93-2.7,1.87-3.92,2.8l-.07,.06c-.06,.06,.06-.05,0-.13h0Zm-.53,.04c.05-.3,.24-.34,.41-.51,.22-.16,.79-.59,1.02-.75,.79-.58,1.93-1.38,2.67-2,.44-.35,.72-.65,.91-1.18,.69-2,1.21-4.55,.76-6.6-.07-.19-.11-.34-.15-.48l-.21-.84c-.3-1.26-.62-2.8-1.14-3.92l-.08-.22s-.04-.11-.05-.15c-.13-.38,.21-.85,.39-1.18,1.58-2.98,4.26-5.43,6.43-7.91,1.31-1.63,1.83-3.54,2.54-5.5l1.15-3.17c.46-1.3,.61-1.67,.24-2.21-.07-.11,.03,.09,.11,.16,.17,.13,.14,.14,.2,.17,.07,.03,0,.02-.02,0,0,0-.07-.02-.16-.03-2.3-.28-5.25,.25-7.54,.85l-1.32-1.77c-2.07-2.8-4.87-6.37-6.98-9.17-.64-.85-1.67-2.21-2.3-3.06-.41-.54-.74-1.53-.97-2.17,.48-.78,1.06-1.38,.94-2.57-.02,.28,.12,.75,.3,1.03,.1,.2,.25,.37,.41,.52,0,0,.02,.02,.03,.02-.04-.02-.16-.1-.33-.18-5.56-2.32-11.89-3.57-17.72-5.27-1.04-.35-2.09-.46-2.91-1.39-.35-.45-.59-.94-.88-1.41-.16-.23-.2-.32-.34-.46,.12,.07,.29,.2,.46,.24l.28,.07s.07,0,0,0c-4.88,.13-9.83,1.1-14.66,1.92-2.45,.47-5.05,.92-7.24,1.81-.02,0,.02-.02,.07-.07,.07-.07,.11-.17,.14-.26-.68,1.38-1.63,2.69-2.77,3.71-3.41,2.98-8.44,4.85-7.75,10.01,.08,.74,.22,2.11-.42,2.89-.77,.9-1.25,2.02-1.35,3.2-.02-.33,.09,.11,.21,.29,1.56,3.04,3.33,5.98,5.09,8.91,.32,.54,1.07,1.64,1.38,2.12,2.42,2.54,5.55,1.88,8.53,.68l.47,.18,.2,.07s.09,.04,.13,.04c1.88,.17,3.97-.47,5.66-1.25,.58-.31,1.36-.25,1.88,.15,.54,.4,1.5,1.1,2.06,1.22l1.28-.53c.02,.58,.22,2.5,.06,3.04-.07,.41-.19,1.14-.15,1.49,.02,.09,0,0,.03,0,0-.04,.04,.07,.04,.07l.09,.19c.92,1.71,2.79,4.87,3.73,6.55,.61,1.23,1.77,2.67,1.42,4.22-.46,1.61-1.27,3.49-1.53,5.05,0-.09-.08-.47-.12-.52,.17,.41,.54,1.02,.73,1.4,3.66,6.39,7.24,13.09,10.85,19.48l.02,.04c-.09-.14-.42-.37-.7-.39-.07,0-.14,0-.2,0-.02,0,0,0,0,0h.02c1.28,.08,3.19-.15,4.48-.19,1.24-.23,2.66-.94,3.81-1.45,.85-.54,1.61-1.3,2.33-2.05,1.96-2.1,4.03-4.25,5.33-6.84,.51-.98,.94-1.89,.78-3l-.06-1.09h0v-.02Z"/>
    <path class="cls-1" d="M76.28,70.48c-.2,6.09-3.18,9.15-5.65,10.64l-.09,.06h.1c5.27,.2,10.17-3.35,11.9-8.66,1.52-4.66,.29-9.74-3.14-12.93l-.03-.03-.02,.03c-1.32,2.13-2.92,5.74-3.09,10.88h.02Z"/>
    <g>
      <path class="cls-1" d="M95.95,52.84c-1.11-.25-2.25-.41-3.43-.46-9.6-.4-17.69,6.4-18.06,15.19-.05,1.05,.03,2.07,.2,3.07,.06,.32-.28,.57-.57,.41-6.22-3.38-10.32-10.09-10-17.65,.2-4.71,2.08-8.95,5.04-12.18,.29-.32,.8,0,.65,.39h0c-.03,.08-.07,.17-.09,.25-.03,.06-.05,.11-.07,.17-.05,.12-.09,.24-.14,.36,0,.02,0,.04-.02,.05-.05,.13-.09,.26-.14,.39-.04,.1-.07,.21-.11,.33-.07,.22-.15,.44-.23,.67-.07,.19-.12,.37-.19,.56,0,.02,0,.04-.02,.06-.05,.15-.09,.31-.14,.46-.03,.08-.05,.16-.07,.24,0,.05-.03,.09-.04,.14-.03,.07-.05,.14-.07,.21-.03,.1-.06,.2-.08,.3,0,.02,0,.04-.02,.06-.04,.13-.07,.26-.1,.39,0,.05-.03,.09-.04,.13-.03,.1-.06,.21-.08,.32-.06,.22-.11,.45-.16,.67-.02,.07-.04,.15-.05,.22-.02,.08-.04,.17-.06,.24v.03c-.04,.18-.07,.35-.09,.53,0,.04,0,.07-.02,.09,0,.07-.02,.12-.03,.19v.02c0,.07-.02,.12-.03,.19,0,.06-.02,.12-.03,.18,0,.03,0,.05,0,.07,0,.06,0,.11-.02,.17,0,.03,0,.06,0,.08,0,.04,0,.07,0,.11,0,.07,0,.15-.02,.22,0,.08,0,.16-.02,.23,0,.06,0,.1,0,.17v.26c-.05,1.34,.18,2.49,.8,3.23,.04,.04,.07,.07,.1,.11,.69,.72,1.8,.99,3.51,.6,.09-.02,.2-.05,.3-.07,.15-.04,.31-.08,.46-.13,.26-.08,.54-.18,.83-.29,.11-.04,.23-.08,.35-.13s.24-.1,.36-.15c.19-.07,.37-.17,.57-.25,.13-.06,.26-.12,.39-.19s.27-.13,.41-.2c.14-.07,.29-.14,.43-.21,.14-.07,.28-.14,.43-.2,.17-.08,.33-.16,.49-.23,.81-.37,1.6-.7,2.37-.98,.13-.05,.26-.09,.39-.14,.25-.08,.49-.17,.73-.25,0,0,.03,0,.04,0,.51-.16,1.01-.31,1.51-.43,.22-.06,.44-.11,.65-.16,.09-.02,.19-.04,.28-.06,.08-.02,.17-.04,.25-.06l.3-.06c.58-.1,1.14-.2,1.69-.25,.22-.03,.45-.05,.67-.07,.44-.04,.86-.06,1.28-.06h1.02c.09,0,.19,0,.28,0h.04c.07,0,.13,0,.2,0h.25c.07,0,.14,0,.21,.02,.2,.02,.39,.04,.58,.07,0,0,1.04,.06,2.74,.61,1.04,.33,2.31,.85,3.75,1.65h0c.35,.23,.12,.79-.31,.7l.03,.04Z"/>
      <path class="cls-1" d="M77.72,48.37c1.66,.07,3.16-.72,4.06-1.98,.52-.72,.84-1.6,.87-2.55,.11-2.62-1.92-4.82-4.53-4.93-2.46-.1-4.57,1.69-4.89,4.09-.02,.15-.04,.3-.04,.45-.11,2.62,1.92,4.82,4.53,4.93Z"/>
    </g>
  </g>
</svg>